# xmcd
#
# Track frame offsets:
#	150
#	17771
#	33484
#	52010
#	69614
#	85478
#
# Disc length: 1442 seconds
# Revision: 0
# Processed by: cddbd v1.5.2PL0 Copyright (c) Steve Scherf et al.
# Submitted via: dBpowerAMP V12.0
#
DISCID=4e05a006
DTITLE=Paige Anderson and The Fearless Kin - Wild Rabbit
DYEAR=2012
DGENRE=Country
TTITLE0=Hourglass
TTITLE1=Ballad of the Red River
TTITLE2=Hollow Bones of White Swans
TTITLE3=Follow Me to the South
TTITLE4=Wild Rabbit
TTITLE5=Where Did You Go
EXTD=
EXTT0=
EXTT1=
EXTT2=
EXTT3=
EXTT4=
EXTT5=
PLAYORDER=
